<svg fill="none" height="285" viewBox="0 0 282 285" width="282" xmlns="http://www.w3.org/2000/svg" xmlns:xlink="http://www.w3.org/1999/xlink"><clipPath id="a"><path d="m0 .246582h281.139v284.237h-281.139z"/></clipPath><g clip-path="url(#a)"><path d="m217.861 28.1938-97.851 97.8472c-.425.426-.931.764-1.487.995-.557.23-1.153.349-1.755.349s-1.198-.119-1.755-.349c-.556-.231-1.061-.569-1.487-.995-.426-.425-.764-.931-.994-1.487-.231-.556-.35-1.153-.35-1.755s.119-1.198.35-1.754c.23-.557.568-1.062.994-1.488l4.927-4.927" stroke="#2b4257" stroke-linecap="round" stroke-miterlimit="10" stroke-width="2"/><path d="m146.86 20.8812c3.434.2696 7.264 2.0801 10.426 5.2389 3.162 3.1587 4.966 6.9916 5.236 10.4232 3.435.2729 7.264 2.0802 10.426 5.2389 3.162 3.1588 4.966 6.9917 5.236 10.4265 3.435.2697 7.264 2.077 10.426 5.2357 3.162 3.1588 4.96 7.0045 5.236 10.4265 3.435.2696 7.265 2.0769 10.427 5.2357 3.162 3.1587 4.966 6.9916 5.235 10.4265 3.435.2696 7.265 2.0769 10.427 5.2357 3.162 3.1587 4.966 6.9916 5.235 10.4264.203.0161.408.0353.61.0642 14.969-15.2577 9.563-45.1022-12.16-66.825-21.722-21.7229-51.57-27.12874-66.825-12.16.026.1959.049.4077.065.6068z" fill="#e57873"/><path d="m225.171 99.1952c.202.016.407.0353.61.0642 14.968-15.2577 9.562-45.1022-12.16-66.8251" stroke="#2b4257" stroke-linecap="round" stroke-miterlimit="10" stroke-width="2"/><path d="m209.508 83.5332c3.435.2697 7.265 2.0769 10.427 5.2357" stroke="#2b4257" stroke-linecap="round" stroke-miterlimit="10" stroke-width="2"/><path d="m193.846 67.8708c3.435.2697 7.265 2.077 10.427 5.2358" stroke="#2b4257" stroke-linecap="round" stroke-miterlimit="10" stroke-width="2"/><path d="m178.184 52.2087c3.435.2697 7.265 2.077 10.427 5.2357" stroke="#2b4257" stroke-linecap="round" stroke-miterlimit="10" stroke-width="2"/><path d="m162.522 36.5435c3.435.2728 7.264 2.0801 10.426 5.2389" stroke="#2b4257" stroke-linecap="round" stroke-miterlimit="10" stroke-width="2"/><path d="m146.795 20.2744c.026.2023.049.4077.065.6067 3.434.2697 7.264 2.0802 10.426 5.2389" stroke="#2b4257" stroke-linecap="round" stroke-miterlimit="10" stroke-width="2"/><path d="m213.62 32.4344c-21.722-21.7229-51.57-27.12874-66.825-12.16" stroke="#fff1d7" stroke-linecap="round" stroke-miterlimit="10" stroke-width="2"/><path d="m10.4713 151.308c3.6531-2.138 3.9741-13.068 3.9741-13.068l-12.13744-2.205c-4.3786 9.713 4.50701 17.415 8.16334 15.273z" fill="#f4ab9d"/><path d="m16.561 148.493c3.5311-2.568-1.1621-11.877-1.2552-12.584l-6.42022 2.8c-1.82335 5.213 3.54072 6.555 3.54072 6.555s-2.3979.118-3.8521.722c-1.45419.603 4.4396 5.075 7.9868 2.507z" fill="#f4ab9d"/><path d="m8.87278 138.708c-1.81051 5.214 3.55362 6.556 3.55362 6.556s-2.398.118-3.85217.722" stroke="#2b4257" stroke-linecap="round" stroke-linejoin="round" stroke-width="2"/><path d="m131.84 109.07s.642-2.248-1.284-2.97-10.112 1.605-10.112 1.605l-.963 11.637c5.617 7.383 19.581.802 20.384-.963.802-1.766-8.025-9.309-8.025-9.309z" fill="#fbc2a5"/><path d="m119.481 119.342c5.617 7.383 19.581.802 20.384-.963" stroke="#2b4257" stroke-linecap="round" stroke-miterlimit="10" stroke-width="2"/><path d="m1.19106 140.009c-3.88745-26.689 5.99329-43.3209 14.96874-52.5724 9.563-9.8615 19.8643-13.4344 21.0071-13.8035l5.0013 15.2512.045-.016c-.0771.0289-8.0253 2.796-14.9752 10.2114-9.0718 9.6523-12.4906 22.6473-10.1633 38.6213z" fill="#628ecc"/><path d="m1.99351 113.474c-.51286 2.185-.90508 4.397-1.174906 6.626l15.617196 5.588c.1046-2.27.3685-4.53.7897-6.763z" fill="#5bc0c3"/><path d="m1.19106 140.009c-3.88745-26.689 5.99329-43.3209 14.96874-52.5725" stroke="#2b4257" stroke-linecap="round" stroke-miterlimit="10" stroke-width="2"/><path d="m179.237 227.555c-40.008-49.628-93.1255-71.2-93.6584-71.412l7.1361-17.89c.6003.237 14.9273 6.006 34.5893 18.39 18.082 11.39 44.373 30.843 66.927 58.823z" fill="#fbc2a5"/><path d="m91.8093 158.945c3.4798 1.66 8.2597 4.074 13.9447 7.278l8.667-17.242c-.642-.353-1.262-.696-1.861-1.03z" fill="#2b4257"/><path d="m88.4226 265.081-14.0924-13.129c11.7298-12.59 19.5817-23.867 23.3408-33.523 2.713-6.973 3.21-12.934 1.451-17.717-4.5359-12.401-24.657-17.482-31.3469-18.298l2.2921-19.093c6.5813.939 13.0283 2.654 19.2061 5.11 14.2077 5.676 23.8677 14.558 27.9277 25.681 3.406 9.309 2.87 19.851-1.605 31.318-4.625 11.935-13.774 25.283-27.1734 39.651z" fill="#fbc2a5"/><path d="m101.44 174.806c-3.8124-2.561-7.8919-4.7-12.1667-6.378-3.0902-1.229-6.2514-2.271-9.4666-3.12l-10.6544 5.646-1.3772 11.486c4.8955.587 16.9848 3.467 24.8945 9.829z" fill="#2b4257"/><path d="m48.3828 284.162h97.1772" stroke="#2b4257" stroke-linecap="round" stroke-miterlimit="10" stroke-width="2"/><path d="m151.896 284.162h3.593" stroke="#2b4257" stroke-linecap="round" stroke-miterlimit="10" stroke-width="2"/><path d="m58.1033 39.6926s8.067 2.3209 12.9913 9.3832 19.9028-5.3448 26.2138 4.2277c2.5681 3.8682 5.6786 4.9789 8.5036 4.9308.667-.0136 1.327.1448 1.915.46.589.3152 1.086.7766 1.444 1.3397s.566 1.2089.602 1.8754-.099 1.331-.395 1.9297l-6.879 13.9031c-4.0638 8.2275-15.3538 9.6977-21.1545 2.5873-.1252-.1509-.2472-.3049-.3659-.4654-6.7413-8.8792-11.8775-2.52-23.8737-6.5294-7.9129-2.6452-6.3528-7.2228-12.0187-5.7173-5.6658 1.5056-5.9868-16.5192-5.9868-16.5192" fill="#2b4257"/><path d="m58.1033 39.6926s8.067 2.3209 12.9913 9.3832 19.9028-5.3448 26.2138 4.2277c2.5681 3.8682 5.6786 4.9789 8.5036 4.9308.667-.0136 1.327.1448 1.915.46.589.3152 1.086.7766 1.444 1.3397s.566 1.2089.602 1.8754-.099 1.331-.395 1.9297l-6.879 13.9031c-4.0638 8.2275-15.3538 9.6977-21.1545 2.5873-.1252-.1509-.2472-.3049-.3659-.4654-6.7413-8.8792-11.8775-2.52-23.8737-6.5294-7.9129-2.6452-6.3528-7.2228-12.0187-5.7173-5.6658 1.5056-5.9868-16.5192-5.9868-16.5192" stroke="#586977" stroke-linecap="round" stroke-miterlimit="10" stroke-width="2"/><path d="m36.6436 72.9558 10.2017.1284v-10.4939l-10.2017-1.1428z" fill="#fbc2a5"/><path d="m36.6436 61.4475v11.5083" stroke="#2b4257" stroke-linecap="round" stroke-miterlimit="10" stroke-width="2"/><path d="m46.8453 68.0924c-2.9405-.5007-5.1009-2.1732-5.1009-4.1571.0032-.493.1325-.9771.3756-1.406l4.7253.061z" fill="#2b4257"/><path d="m54.9539 43.0889-1.865 14.6702h4.0158z" fill="#f39b92"/><path d="m57.1049 57.7591-2.154-14.6702" stroke="#fff1d7" stroke-linecap="round" stroke-miterlimit="10" stroke-width="2"/><path d="m53.0889 57.759h4.0158" stroke="#2b4257" stroke-linecap="round" stroke-miterlimit="10" stroke-width="2"/><path d="m46.8452 73.0842v-10.4939" stroke="#fff1d7" stroke-linecap="round" stroke-miterlimit="10" stroke-width="2"/><path d="m39.5358 43.0889h15.4086v16.6187c0 .8706-.1715 1.7326-.5046 2.5368-.3331.8043-.8214 1.535-1.437 2.1506-.6155.6155-1.3463 1.1038-2.1505 1.4369-.8043.3332-1.6663.5046-2.5368.5046h-.9181c-2.8393 0-5.5624-1.1279-7.5701-3.1356s-3.1356-4.7308-3.1356-7.5701v-9.7042c0-.7526.2989-1.4744.8311-2.0066s1.254-.8311 2.0066-.8311z" fill="#fbc2a5"/><path d="m63.6983 46.1321c-.2151-7.9193-13.277-8.5614-20.0664-6.3656 0 0-7.5406.3723-10.0028 5.7236-2.4621 5.3513 3.0689 18.211 3.0689 18.211l4.0127-5.9933 2.6034-3.0014s1.1556-.6421 1.9003-2.5681c.3961-.9962 1.0716-1.8567 1.9452-2.478.8737-.6214 1.9082-.977 2.9792-1.0243.8721-.0405 1.7389-.1576 2.5905-.3499 1.5794-.3756 2.3916.0803 2.8089.626.7703 1.0662 1.9163 1.8004 3.2069 2.0545 2.276.3884 5.0816-.0835 4.9532-4.8345z" fill="#2b4257"/><path d="m55.5352 48.8992c.7687 1.0717 1.9164 1.8107 3.2101 2.0673" stroke="#586977" stroke-linecap="round" stroke-miterlimit="10" stroke-width="2"/><path d="m43.3142 54.7095s1.1557-.642 1.9004-2.5681c.3961-.9961 1.0716-1.8567 1.9452-2.478s1.9081-.977 2.9791-1.0242c.8721-.0406 1.739-.1576 2.5906-.3499 1.5794-.3756 2.3915.0802 2.8088.626" stroke="#586977" stroke-linecap="round" stroke-miterlimit="10" stroke-width="2"/><path d="m54.9509 58.2502v1.4542c.0004.8707-.1707 1.7328-.5037 2.5373-.333.8044-.8213 1.5354-1.4369 2.151s-1.3466 1.1039-2.151 1.4369c-.8045.333-1.6666.5041-2.5373.5037" stroke="#fff1d7" stroke-linecap="round" stroke-miterlimit="10" stroke-width="2"/><path d="m49.2112 54.1765c.064-.0523.1222-.1115.1733-.1766.0779-.0935.1764-.1677.2878-.2167.1114-.0491.2327-.0716.3542-.0658h3.1428v2.2279c0 .3164-.0624.6297-.1836.9221-.1212.2923-.2988.5578-.5228.7814-.2239.2236-.4896.4009-.7821.5217s-.6059.1828-.9224.1824c-.6385 0-1.2509-.2537-1.7024-.7052s-.7051-1.0639-.7051-1.7024c-.0018-.3411.0748-.678.224-.9847s.3669-.575.6363-.7841z" fill="#f4ab9d"/><path d="m53.1628 53.3035c-.138.902-.9983 1.4798-2.1155 1.3354-.7097-.1014-1.364-.441-1.8554-.963.138-.9021.9983-1.4799 2.1155-1.3355.7102.0999 1.3649.4397 1.8554.9631z" fill="#f7f7f7"/><path d="m53.1628 53.3035c-.138.902-.9983 1.4798-2.1155 1.3354-.7097-.1014-1.364-.441-1.8554-.9631" stroke="#2b4257" stroke-linecap="round" stroke-miterlimit="10" stroke-width="2"/><path d="m51.9672 53.7612c.1178-.0255.1872-.167.1549-.316s-.154-.2491-.2718-.2236-.1872.167-.1549.316c.0323.1491.1539.2492.2718.2236z" fill="#2b4257"/><path d="m47.3558 57.0529c.9219 0 1.6692-.7474 1.6692-1.6693s-.7473-1.6692-1.6692-1.6692-1.6693.7473-1.6693 1.6692.7474 1.6693 1.6693 1.6693z" fill="#e57873"/><path d="m53.2365 50.7194c-.564-.1509-1.1579-.1503-1.7216.0019-.5636.1522-1.0771.4505-1.4885.8648" stroke="#2b4257" stroke-linecap="round" stroke-miterlimit="10" stroke-width="2"/><path d="m53.1595 59.3866c-.2267-.284-.5237-.5037-.8617-.6371-.3379-.1335-.7049-.1762-1.0644-.1237" stroke="#2b4257" stroke-linecap="round" stroke-miterlimit="10" stroke-width="2"/><path d="m40.9867 58.6129c1.523 0 2.7575-1.2346 2.7575-2.7575s-1.2345-2.7575-2.7575-2.7575c-1.5229 0-2.7575 1.2346-2.7575 2.7575s1.2346 2.7575 2.7575 2.7575z" fill="#fbc2a5"/><path d="m40.9867 57.268c.78 0 1.4124-.6324 1.4124-1.4124 0-.7801-.6324-1.4125-1.4124-1.4125-.7801 0-1.4125.6324-1.4125 1.4125 0 .78.6324 1.4124 1.4125 1.4124z" fill="#f4ab9d"/><path d="m26.1433 121.047h33.0995v4.073c-.0017 4.388-1.7459 8.595-4.8491 11.697s-7.3113 4.845-11.699 4.845c-4.3883.001-8.5973-1.741-11.7011-4.843-3.1039-3.103-4.8486-7.31-4.8503-11.699z" fill="#5bc0c3"/><path d="m42.6947 71.7166c4.3888 0 8.5979 1.7434 11.7013 4.8468s4.8468 7.3125 4.8468 11.7013v32.7813h-33.0995v-32.7781c-.0004-2.1736.4274-4.3261 1.2591-6.3344.8316-2.0083 2.0507-3.8331 3.5878-5.3701 1.537-1.537 3.3618-2.7562 5.37-3.5878 2.0083-.8316 4.1608-1.2595 6.3345-1.259z" fill="#5bc0c3"/><path d="m57.1049 112.848-30.9616 12.272s-2.9661 55.461 52.0874 63.808l37.5583-42.695z" fill="#5bc0c3"/><path d="m26.1433 125.12s-2.9662 55.461 52.0874 63.808" stroke="#2b4257" stroke-linecap="round" stroke-miterlimit="10" stroke-width="2"/><path d="m81.3284 239.606-17.2159 19.402 15.0812 22.692 2.1411-9.2 18.6187-13.056z" fill="#5bc0c3"/><path d="m81.3284 239.606-17.2159 19.402 15.0812 22.692" stroke="#2b4257" stroke-linecap="round" stroke-miterlimit="10" stroke-width="2"/><path d="m199.252 219.424-12.519-19.473-20.734 17.537 21.655 20.089 18.66-18.153z" fill="#5bc0c3"/><path d="m165.999 217.488 21.655 20.089 18.66-18.153" stroke="#2b4257" stroke-linecap="round" stroke-miterlimit="10" stroke-width="2"/><path d="m120.103 120.697c-31.2117-6.674-63.6467-20.545-77.9446-27.0873-.9768-.4472-1.8539-1.0859-2.5793-1.8784s-1.2842-1.7225-1.6435-2.735c-.3592-1.0124-.5115-2.0867-.4479-3.1592.0637-1.0724.342-2.1211.8186-3.084.9216-1.8728 2.5365-3.3128 4.5023-4.0146 1.9657-.7018 4.1276-.6101 6.0269.2556 13.72 6.2436 45.2434 19.7229 74.6385 26.0019z" fill="#628ecc"/><path d="m101.53 115.984c2.118.612 4.249 1.205 6.391 1.778l4.395-15.434c-2.141-.569-4.271-1.163-6.392-1.781z" fill="#5bc0c3"/><g stroke-linecap="round" stroke-miterlimit="10" stroke-width="2"><path d="m48.8228 78.9907c13.72 6.2437 45.2434 19.723 74.6382 26.0023" stroke="#fff1d7"/><path d="m120.103 120.697c-31.2116-6.674-63.6467-20.545-77.9446-27.0874" stroke="#2b4257"/><path d="m87.113 263.403 4.3883 3.852" stroke="#2b4257"/><path d="m84.0249 264.882 4.3882 3.852" stroke="#2b4257"/><path d="m80.9399 266.362 4.3883 3.852" stroke="#2b4257"/><path d="m190.158 211.508-2.247 3.531" stroke="#2b4257"/><path d="m192.405 214.493-2.247 3.531" stroke="#2b4257"/><path d="m194.652 217.482-2.247 3.531" stroke="#2b4257"/><path d="m21.2671 224.014s6.8889-32.313 44.091-6.526c37.2019 25.787 80.2019-13.216 80.2019-13.216" stroke="#2b4257" stroke-dasharray="8 8"/><path d="m171.42 182.902s48.293-40.274 42.201-62.417c-6.093-22.1435-38.201 22.439 0 28.798 38.2 6.359 51.683-52.8997 51.683-52.8997" stroke="#2b4257" stroke-dasharray="8 8"/></g><path d="m254.739 44.7388c13.681 2.3434 10.16 14.895 10.16 14.895l-1.461 1.8651s-.786-.4174-2.446-.2536c-1.659.1637-.366-1.6821-.366-1.6821-.552.4701-1.193.8257-1.884 1.0461s-1.419.3013-2.141.2379c-2.366-.2054.459-2.6516.642-2.8153-.222.1862-4.292 3.5825-6.741 1.9614-2.53-1.6628 1.085-4.1218 1.085-4.1218s-5.021 3.2583-7.384 1.9261c-2.362-1.3322 3.721-4.8152 3.721-4.8152s-5.583 1.4606-8.501-.4462 6.199-3.7687 6.199-3.7687-7.621-2.2214-9.287-4.324 4.722-2.0513 18.404.2953z" fill="#2b4257"/><path d="m255.176 49.6632 4.433.2664s.266 15.9832 9.669 21.5078l-11.184 5.6723 11.309 9.7652s9.482-25.681 1.502-36.9742c-3.769-5.3352-11.698-5.3833-15.729-.2375z" fill="#7296a3"/><path d="m258.094 77.1096 11.309 9.7652s9.482-25.681 1.502-36.9742" stroke="#2b4257" stroke-linecap="round" stroke-miterlimit="10" stroke-width="2"/><path d="m261.028 46.0549c-2.32.4637-4.396 1.744-5.852 3.6082l4.433.2664v.4816c.917-1.2148 1.412-2.696 1.409-4.2181.013-.0418.01-.0899.01-.1381z" fill="#e57873"/><path d="m261.631 49.0082c1.22 0 2.209-.5734 2.209-1.2808s-.989-1.2809-2.209-1.2809-2.208.5735-2.208 1.2809.988 1.2808 2.208 1.2808z" fill="#fff"/><path d="m259.426 47.7275c.222.3898.543.7139.93.9393.388.2254.828.3442 1.277.3442.448 0 .889-.1188 1.276-.3442.388-.2254.709-.5495.931-.9393" stroke="#2b4257" stroke-linecap="round" stroke-miterlimit="10" stroke-width="2"/><path d="m261.631 48.2122c.149 0 .27-.2084.27-.4655s-.121-.4655-.27-.4655-.27.2084-.27.4655.121.4655.27.4655z" fill="#354b5f"/><path d="m279.444 41.4999c6.099 12.4745-6.16 16.9462-6.16 16.9462l-2.35-.0963s-.122-.8828-1.226-2.1347c-1.104-1.252 1.152-1.2841 1.152-1.2841-.704-.173-1.367-.4843-1.95-.9158s-1.075-.9746-1.446-1.5977c-1.217-2.0416 2.42-1.1749 2.664-1.1139-.282-.0706-5.412-1.3932-5.534-4.3337-.125-3.0239 3.981-1.5248 3.981-1.5248s-5.576-2.1764-5.862-4.8665 6.08.2086 6.08.2086-4.459-3.6755-4.6-7.1553 6.68 2.8313 6.68 2.8313-2.648-7.4828-1.926-10.0637 4.411 2.6227 10.497 15.1004z" fill="#7296a3"/><path d="m269.692 56.2118c-1.101-1.252 1.152-1.2841 1.152-1.2841-.704-.173-1.367-.4843-1.95-.9158s-1.075-.9746-1.446-1.5977c-1.217-2.0416 2.42-1.1749 2.664-1.1139-.282-.0706-5.412-1.3932-5.534-4.3337-.125-3.0239 3.98-1.5248 3.98-1.5248s-5.575-2.1764-5.861-4.8665 6.08.2087 6.08.2087-4.443-3.6724-4.584-7.1522c-.142-3.4798 6.68 2.8313 6.68 2.8313s-2.648-7.4828-1.926-10.0637" stroke="#fff" stroke-linecap="round" stroke-miterlimit="10" stroke-width="2"/></g></svg>